<?xml version="1.0" encoding="UTF-8"?>
<svg id="Layer_2" data-name="Layer 2" xmlns="http://www.w3.org/2000/svg" viewBox="0 0 111.76 112.55">
  <defs>
    <style>
      .cls-1 {
        fill: #a98467;
      }

      .cls-2 {
        fill: #6c584c;
      }
    </style>
  </defs>
  <g id="Layer_1-2" data-name="Layer 1">
    <g>
      <g>
        <path class="cls-1" d="m48.65,32.76c0,4.38,0,8.75,0,13.13-.02,6.62-4.42,11.03-11.05,11.05-8.85.02-17.7.02-26.55,0-6.53-.02-10.98-4.4-11.02-10.94-.05-8.9-.05-17.8,0-26.71.04-6.43,4.27-10.87,10.69-10.97,9.05-.14,18.1-.13,27.15,0,6.57.09,10.77,4.57,10.78,11.17,0,4.43,0,8.85,0,13.28Zm-6.93-.18c0-3.18.04-6.37,0-9.55-.07-4.34-2.62-7.47-6.93-7.65-6.9-.28-13.82-.29-20.72-.02-4.44.18-7.02,3.2-7.09,7.67-.1,6.37-.1,12.74,0,19.1.08,4.88,3.2,7.85,8.06,7.88,6.22.03,12.44.03,18.65,0,4.93-.03,8-3.11,8.04-8.03.03-3.13,0-6.27,0-9.4Z"/>
        <path class="cls-1" d="m104.21,88.24c0,4.43.02,8.85,0,13.28-.03,6.64-4.41,11.01-11.06,11.02-8.8.02-17.6.01-26.41,0-6.71-.01-11.13-4.39-11.16-11.11-.04-8.8-.05-17.61,0-26.41.04-6.66,4.37-11.06,11.03-11.12,8.85-.07,17.7-.07,26.56,0,6.76.05,11.04,4.46,11.05,11.21,0,4.38,0,8.75,0,13.13Zm-6.91.12c0-3.23.04-6.47,0-9.7-.06-4.32-2.64-7.49-6.93-7.66-6.9-.28-13.82-.29-20.72-.03-4.4.17-6.97,3.12-7.05,7.52-.12,6.52-.12,13.04,0,19.55.09,4.63,3.19,7.55,7.84,7.58,6.32.05,12.63.05,18.95,0,4.83-.04,7.88-3.17,7.92-8.01.02-3.08,0-6.17,0-9.25Z"/>
        <path class="cls-2" d="m24.27,112.52c-4.33,0-8.65.01-12.98,0-6.93-.03-11.25-4.34-11.27-11.29-.02-8.75-.03-17.51,0-26.26.02-5.41,2.88-9.33,7.81-10.66,1.18-.32,2.45-.42,3.68-.43,8.55-.04,17.1-.03,25.66-.02,7.18.01,11.47,4.35,11.47,11.55,0,8.6,0,17.21,0,25.81,0,6.94-4.31,11.26-11.25,11.28-4.38.02-8.75,0-13.13,0Zm0-6.92c3.23,0,6.47.04,9.7-.01,4.53-.08,7.66-3.05,7.73-7.56.1-6.57.1-13.14,0-19.7-.07-4.29-2.86-7.27-7.19-7.4-6.71-.2-13.43-.2-20.14-.02-4.5.12-7.27,3.02-7.38,7.56-.14,6.46-.14,12.94,0,19.4.1,4.8,3.23,7.69,8.04,7.73,3.08.03,6.17,0,9.25,0Z"/>
      </g>
      <g>
        <path class="cls-2" d="m101.93,23.71c.07.35.18.7.2,1.05.18,2.4.22,4.78-.24,7.17-.91,4.76-2.99,8.91-6.28,12.43-1.68,1.79-3.61,3.32-5.73,4.58-.21.13-.49.19-.74.19-5.92.01-11.85,0-17.77,0-.22,0-.48-.05-.67-.17-3.04-1.84-5.73-4.08-7.89-6.92-1.55-2.04-2.75-4.26-3.62-6.67-.57-1.59-.93-3.23-1.2-4.9-.05-.32-.02-.64-.03-.96,0-1.59,0-3.17,0-4.76.05-1.02-.22-1.05,1.09-1.05,1.25,0,2.5-.06,3.75-.06,7.88,0,15.77,0,23.65,0,.16.02.32.06.48.06,2.86,0,5.73,0,8.59,0,2.13,0,4.26,0,6.39,0Zm-5.46,5.1s.09.01.13.02c-.15,1.07-.22,2.17-.47,3.22-1.43,6.06-5.01,10.25-10.94,12.33-.42.15-.84.29-1.25.48-.69.32-.97.89-.8,1.57.16.64.69,1.03,1.42.99.37-.02.74-.08,1.09-.18,2.19-.65,4.2-1.65,5.99-3.06,3.11-2.45,5.37-5.51,6.68-9.28.79-2.28,1.06-4.62,1.08-7.01,0-.52-.23-.93-.6-1.27-.42-.39-.94-.38-1.43-.24-.48.14-.74.52-.79,1.03-.04.47-.08.93-.12,1.4Z"/>
        <path class="cls-2" d="m100.74,51.67c-1.69,1.29-3.37,2.58-5.06,3.86-10.16,0-20.32,0-30.48,0-1.73-1.26-3.47-2.53-5.2-3.79.21-.02.41-.07.62-.07,13.37,0,26.74,0,40.11,0Z"/>
        <path class="cls-2" d="m98.57,45.15c.17-.25.28-.41.39-.57.82-1.24,1.63-2.48,2.47-3.7.12-.17.34-.32.54-.37,1.95-.44,3.61-1.36,4.83-2.98,1.56-2.07,1.82-5.33-.32-7.45-.39-.39-.84-.72-1.25-1.11-.12-.11-.23-.3-.24-.46-.01-.42.07-.84.05-1.26-.02-.73-.09-1.46-.14-2.18-.03-.41.07-.49.43-.35,2.71,1.08,4.7,2.9,5.82,5.61.48,1.16.64,2.38.58,3.63-.21,4.38-2.57,7.31-6.29,9.3-2.02,1.08-4.22,1.55-6.45,1.9-.1.02-.21-.01-.44-.03Z"/>
        <path class="cls-2" d="m85.05.11c-.16.18-.32.37-.48.54-.79.83-1.49,1.73-1.89,2.82-.58,1.54-.66,3.1-.04,4.64.28.7.66,1.35,1.01,2.02.28.53.59,1.03.86,1.56.78,1.52.82,3.14.41,4.74-.46,1.79-1.64,3.08-3.21,4.01-.33.2-.69.35-1.04.53-.03-.03-.06-.05-.1-.08.04-.25.06-.5.13-.74.42-1.42.52-2.87.32-4.33-.13-.99-.52-1.91-.99-2.79-.46-.85-.96-1.67-1.42-2.53-1.55-2.93-.85-6.58,1.82-8.75,1.23-1,2.6-1.6,4.18-1.75.12-.01.24,0,.36,0,.02.04.04.07.06.11Z"/>
        <path class="cls-2" d="m74.48,8.39c0,1.02.33,1.94.9,2.78.6.89,1.23,1.77,1.82,2.67.72,1.11.82,2.34.6,3.61-.11.61-.42,1.14-.84,1.59-.56.6-1.14,1.16-1.72,1.74-.07.07-.17.13-.34.25-.04-.36-.09-.65-.11-.94-.05-.85-.09-1.7-.13-2.55-.03-.7-.36-1.28-.75-1.83-.51-.7-1.04-1.38-1.59-2.05-1.16-1.42-1.53-3.03-1.09-4.8.32-1.29,1.18-2.21,2.18-3.01.29-.23.59-.44.96-.7.02.2.04.31.05.42,0,.31,0,.61,0,.92.02.64.04,1.27.06,1.91Z"/>
        <path class="cls-2" d="m87.94,2.26c.03.61.14,1.23.08,1.83-.13,1.45.44,2.59,1.37,3.63.43.49.83,1.01,1.21,1.55.92,1.33.71,3.85-.43,4.95-.44.42-.88.84-1.34,1.22-.27.23-.4.15-.47-.19-.01-.07-.02-.15-.02-.22-.02-.96-.06-1.93-.07-2.89,0-.52-.22-.97-.5-1.37-.33-.48-.71-.92-1.05-1.39-.28-.38-.56-.76-.79-1.17-.79-1.42-.78-3.53.66-4.8.43-.38.83-.8,1.24-1.21.04.02.09.04.13.06Z"/>
        <path class="cls-2" d="m100.74,51.67c-13.37,0-26.74,0-40.11,0-.21,0-.41.05-.62.07.02-.04.04-.12.06-.13.12-.02.25-.02.37-.02,13.27,0,26.53,0,39.8,0,.17,0,.34.05.5.07Z"/>
        <path class="cls-2" d="m65.2,55.53c10.16,0,20.32,0,30.48,0-.18.03-.36.07-.55.07-9.8,0-19.59,0-29.39,0-.18,0-.36-.05-.55-.07Z"/>
        <path class="cls-2" d="m95.54,23.71c-2.86,0-5.73,0-8.59,0-.16,0-.32-.04-.48-.06,3.02,0,6.04,0,9.06,0,0,.02,0,.04,0,.06Z"/>
        <path class="cls-2" d="m95.54,23.71s0-.04,0-.06c2.01,0,4.02,0,6.04,0,.12,0,.24.04.36.06-2.13,0-4.26,0-6.39,0Z"/>
        <path class="cls-2" d="m57.98,24.75c0,1.59,0,3.17,0,4.76-.02-.17-.06-.34-.06-.51,0-1.25,0-2.49,0-3.74,0-.17.04-.34.06-.51Z"/>
        <path class="cls-2" d="m74.48,8.39c-.02-.64-.05-1.27-.06-1.91,0-.31,0-.61,0-.92.02.37.06.73.07,1.1,0,.58,0,1.16,0,1.73Z"/>
      </g>
    </g>
  </g>
</svg>