<?xml version="1.0" encoding="UTF-8"?>
<svg id="Layer_2" data-name="Layer 2" xmlns="http://www.w3.org/2000/svg" viewBox="0 0 132.08 123.36">
  <defs>
    <style>
      .cls-1 {
        fill: #6c584c;
      }
    </style>
  </defs>
  <g id="Layer_1-2" data-name="Layer 1">
    <g>
      <g>
        <polygon class="cls-1" points="97.66 41.88 98.01 41.84 97.66 41.88 97.66 41.88"/>
        <polygon class="cls-1" points="106.34 40.86 106.68 40.82 106.34 40.86 106.34 40.86"/>
        <path class="cls-1" d="m95.81,56.16c-.01-.13-.01-.27,0-.4l.7-5.23-.7,5.23c-.02.14-.02.27,0,.4Z"/>
        <path class="cls-1" d="m98.69,57.94l-1.34-.18c-.12-.02-.24-.04-.35-.08.11.04.23.07.35.08l1.34.18Z"/>
        <path class="cls-1" d="m84.03,60.54c-.11-.19-.18-.4-.21-.63.03.23.1.44.21.63Z"/>
        <polygon class="cls-1" points="82.05 46.62 83.82 59.91 82.05 46.62 82.05 46.62"/>
        <polygon class="cls-1" points="75.94 50.26 76.14 51.4 76.14 51.4 75.94 50.26"/>
        <path class="cls-1" d="m79.01,48.81s-.03,0-.05,0h-1.64s1.64,0,1.64,0c.02,0,.03,0,.05,0Z"/>
        <path class="cls-1" d="m92.47,59.11c-.02.23-.08.46-.18.66.1-.2.17-.43.18-.66Z"/>
        <path class="cls-1" d="m77.97,53l-.47-2.75h-1.55s.2,1.15.2,1.15c.64.5,1.25,1.04,1.83,1.6Z"/>
        <path class="cls-1" d="m102.75,58.47c-.08,0-.15,0-.23-.02l-3.83-.51,3.83.51c.08.01.16.02.23.02Z"/>
        <path class="cls-1" d="m105.36,50.67h0s-.83,6.25-.83,6.25c-.05.37-.22.69-.45.95.23-.26.4-.58.45-.95l.83-6.25Z"/>
        <path class="cls-1" d="m104.08,57.87c-.12.13-.25.26-.41.35.16-.09.29-.22.41-.35Z"/>
        <path class="cls-1" d="m103.08,58.44c-.11.02-.21.03-.32.03h0c.11,0,.22-.01.32-.03Z"/>
        <rect class="cls-1" x="105.46" y="49.17" width="0" height="1.51"/>
        <rect class="cls-1" x="108.93" y="48.09" width="0" height="3.89"/>
        <path class="cls-1" d="m104.95,48.61c.15.23.36.43.61.57h0c-.25-.14-.46-.34-.61-.57Z"/>
        <polygon class="cls-1" points="107.03 49.6 106.04 49.37 107.03 49.6 107.03 49.6"/>
        <path class="cls-1" d="m106.04,49.37c-.17-.04-.33-.11-.48-.2h0c.15.08.3.15.48.2Z"/>
        <rect class="cls-1" x="105.56" y="49.17" width="0" height="0"/>
        <path class="cls-1" d="m130.86,42.14c.22-1.45-1.04-2.7-2.53-2.52l-37.53,4.51c-.21.02-.42.02-.63,0l-37.57-4.51c-1.48-.18-2.73,1.05-2.54,2.49l.13.95c8.78.94,19.04,2.89,25.96,8.34l-.2-1.13h1.55s.47,2.74.47,2.74c2.31,2.26,4.11,5.03,5.14,8.43,2.43-1.15,5.2-1.7,8.12-1.47,7.82.63,14.1,7,14.63,14.82.63,9.33-6.75,17.09-15.94,17.09-2.96,0-5.06-.86-7.44-2.27-.24.15.02.64.26,1.03.97,1.55,1.44,5.31.89,7.05-.3.96-.79,1.79-1.42,2.48-.45.49-.42,1.26.06,1.73.14.13.26.28.38.43,1.31,1.65,1.36,3.77,1.08,5.7l4.34-.44c2.22-.23,4.46-.23,6.68,0l34.48,3.52-3.73-22.83c-.53-3.25-.55-6.57-.07-9.83l5.42-36.3Zm-50.24,5.12s0,.07,0,.1c0-.03,0-.07,0-.1h0Zm14.76,11.19s-.05-.07-.09-.1c.04.04.07.08.1.11,0,0-.01,0-.02-.01Zm.43-2.7c-.02.14-.02.27,0,.4-.01-.13-.01-.27,0-.4l.7-5.23-.7,5.23Zm9.55-5.09l-.83,6.25.83-6.25.2-1.5-.2,1.5Zm5.96-.11c-.1,0-.19-.02-.29-.04.1.02.19.04.29.04h0Z"/>
        <polygon class="cls-1" points="111.03 50.52 110.82 50.47 110.82 50.47 111.03 50.52"/>
        <path class="cls-1" d="m111.32,50.56c-.1,0-.19-.02-.29-.04.1.02.19.04.29.04h0Z"/>
        <path class="cls-1" d="m112.42,50.27c-.15.1-.31.18-.49.23.17-.05.34-.13.49-.23Z"/>
        <path class="cls-1" d="m115.16,65.72c.4-.18.72-.52.88-.96-.16.44-.49.77-.88.96Z"/>
        <path class="cls-1" d="m73.36,118.83c-1.05.15-2.14.23-3.27.23h-.13c-6.29-.03-12.87-.07-19.61-.1l-.22,1.52c-.24,1.62,1.16,3.02,2.83,2.83l37.25-4.13c.17-.02.34-.02.52,0l37.57,4.16c1.5.17,2.74-1.1,2.51-2.55l-1.33-8.14-36.21-3.7c-1.24-.13-2.49-.13-3.73,0l-6.12.62c-1.16,5.05-4.93,8.51-10.07,9.25Z"/>
        <path class="cls-1" d="m103.48,75.71c-.09-6.96-5.71-12.78-12.67-13.08-2.49-.11-4.83.47-6.86,1.55.22,1.33.34,2.75.34,4.25,0,2.94-1.3,5.45-3.53,7.24-.36.29-.21.86.25.93.82.13,1.57.43,2.17,1.16.87,1.04.87,2.26.87,4.11,0,1.33-.39,3.24-1.47,4.59-.05.06-.11.12-.16.18,2.19,1.58,4.87,2.52,7.78,2.52,7.39,0,13.37-6.04,13.27-13.45Z"/>
        <polygon class="cls-1" points="98.96 32.45 97.41 32.62 97.4 32.7 98.95 32.52 98.96 32.45"/>
        <polygon class="cls-1" points="108.77 31.39 107.2 31.56 107.19 31.57 108.77 31.39 108.77 31.39"/>
        <path class="cls-1" d="m124.25,3.49c-.11-.17-.26-.32-.42-.44.17.12.31.27.42.44Z"/>
        <path class="cls-1" d="m123.5,2.86c-.11-.05-.22-.08-.34-.11l-4.99-1.12,4.99,1.12c.12.03.23.06.34.11Z"/>
        <path class="cls-1" d="m102.33,7.76c.12-.87.89-1.52,1.77-1.52.08,0,.16,0,.24.02l5.17.67c.37.05.69.2.95.43-.26-.22-.58-.38-.95-.43l-5.17-.67c-.08-.01-.16-.02-.24-.02-.88,0-1.65.64-1.77,1.52l-2.41,17.61h0s2.41-17.61,2.41-17.61Z"/>
        <path class="cls-1" d="m89.28,1.66c0-.91.83-1.66,1.85-1.66h0c-1.02,0-1.85.75-1.85,1.66v22.38h0s0-22.38,0-22.38Z"/>
        <path class="cls-1" d="m85.78,10.47c-.18-.31-.46-.56-.78-.72.33.15.6.4.78.72Z"/>
        <path class="cls-1" d="m84.17,9.58c-.05,0-.11,0-.17.01l-2.29.3,2.29-.3c.06,0,.11-.01.17-.01Z"/>
        <path class="cls-1" d="m131.75,19.8c.13.17.22.37.28.57-.05-.21-.15-.4-.28-.57Z"/>
        <path class="cls-1" d="m72.12,19.66l-.16-17.74c0-.33.09-.63.26-.89-.17.26-.27.56-.26.89l.16,17.74h0Z"/>
        <path class="cls-1" d="m78.52.22l-4.9.04s-.04,0-.06,0c.02,0,.04,0,.06,0l4.9-.04Z"/>
        <path class="cls-1" d="m60.88,16l-.98-5.57c-.17-.96.5-1.88,1.48-2.04l5.21-.88c.1-.02.21-.03.31-.03-.1,0-.2,0-.31.03l-5.21.88c-.98.17-1.65,1.09-1.48,2.04l.98,5.57Z"/>
        <path class="cls-1" d="m72.12,19.66l1.8,10.2,4.39.48-2.46-17.95c-.24-1.75,1.02-3.36,2.81-3.59l1.6-.21-.06-6.75c0-.34-.11-.65-.3-.91-.12-.17-.28-.32-.46-.44s-.38-.2-.6-.24c-.11-.02-.22-.03-.34-.03l-4.9.04s-.04,0-.06,0c0,0-.02,0-.03,0-.33.02-.64.13-.89.32-.17.12-.31.27-.42.44-.17.26-.27.56-.26.89l.16,17.74Z"/>
        <polygon class="cls-1" points="80.29 10.08 80.29 10.08 78.88 10.26 80.29 10.08"/>
        <polygon class="cls-1" points="81.71 9.89 80.29 10.08 80.29 10.08 81.71 9.89"/>
        <path class="cls-1" d="m85.99,11.08c-.03-.22-.1-.43-.21-.61-.18-.31-.46-.56-.78-.72-.11-.05-.22-.09-.34-.12-.16-.04-.32-.06-.49-.05-.05,0-.11,0-.17.01l-2.29.3-1.42.18-1.42.18c-.85.11-1.48.79-1.54,1.6,0,.11,0,.23.01.35l2.5,18.31.62.07,1.42.16,5.82.64v-7.7l-1.72-12.59Z"/>
        <rect class="cls-1" x="85.52" y="27.79" width="7.51" height="0" transform="translate(-2.81 11.57) rotate(-7.3)"/>
        <path class="cls-1" d="m98.18.94c-.04-.07-.08-.14-.13-.21-.07-.09-.14-.17-.23-.25-.17-.15-.37-.27-.59-.36S96.77,0,96.51,0h-5.39c-1.02,0-1.85.75-1.85,1.66v29.89l1.04.11.23.03,7.08-.78.72-5.27V1.66c0-.26-.07-.5-.18-.72Z"/>
        <polygon class="cls-1" points="90.56 33.36 90.51 33.37 90.56 33.37 90.56 33.36"/>
        <rect class="cls-1" x="96.85" y="28.05" width="5.42" height="0"/>
        <rect class="cls-1" x="98.92" y="32.48" width=".07" height="0" transform="translate(53.36 126.12) rotate(-82.21)"/>
        <path class="cls-1" d="m98.36,25.63h0V1.66c0-.26-.07-.5-.18-.72.12.22.18.46.18.72v23.98Z"/>
        <polygon class="cls-1" points="60.88 16 63.07 28.4 63.07 28.4 60.88 16"/>
        <polygon class="cls-1" points="72.34 29.69 72.21 28.95 72.22 29.68 72.34 29.69"/>
        <path class="cls-1" d="m72.21,28.95h0l-1.5-8.48-2.03-11.51c-.03-.16-.08-.31-.15-.45-.07-.14-.16-.27-.26-.39-.25-.29-.6-.5-.99-.58-.13-.03-.26-.04-.4-.04-.1,0-.2,0-.31.03l-5.21.88c-.98.17-1.65,1.09-1.48,2.04l.98,5.57,2.19,12.39h0s.11.3.11.3l7.62.83,1.42.16v-.73Z"/>
        <path class="cls-1" d="m70.71,20.47h0s-2.03-11.51-2.03-11.51c-.03-.16-.08-.31-.15-.45.07.14.12.29.15.45l2.03,11.51Z"/>
        <polygon class="cls-1" points="72.21 28.95 70.71 20.47 70.71 20.47 72.21 28.95"/>
        <path class="cls-1" d="m51.17,27.38l10.37,1.13-.05-.31-4.12-11.48c-.26-.72-.96-1.18-1.71-1.18-.2,0-.4.03-.59.1l-5.51,1.88c-.94.32-1.44,1.33-1.11,2.25l2.73,7.6Z"/>
        <polygon class="cls-1" points="61.6 28.52 61.48 28.2 61.54 28.51 61.6 28.52"/>
        <polygon class="cls-1" points="63.07 28.4 63.07 28.4 63.07 28.4 63.07 28.4"/>
        <polygon class="cls-1" points="63.12 28.69 63.18 28.69 63.07 28.4 63.12 28.69"/>
        <polygon class="cls-1" points="63.07 28.4 63.12 28.69 63.07 28.4 63.07 28.4"/>
        <path class="cls-1" d="m111,8.2c-.06-.22-.17-.42-.31-.6-.07-.09-.15-.17-.23-.25-.26-.22-.58-.38-.95-.43l-5.17-.67c-.08-.01-.16-.02-.24-.02-.88,0-1.65.64-1.77,1.52l-2.41,17.61-.73,5.37.73-.08,7.72-.85,1.18-4.63,2.23-16.29c.02-.12.02-.24.01-.35,0-.12-.03-.23-.06-.34Z"/>
        <path class="cls-1" d="m108.82,25.18h0s2.23-16.29,2.23-16.29c.02-.12.02-.24.01-.35,0,.12,0,.23-.01.35l-2.23,16.29Z"/>
        <path class="cls-1" d="m124.49,4.09c-.04-.21-.12-.41-.24-.6-.11-.17-.26-.32-.42-.44-.1-.07-.21-.14-.33-.19-.11-.05-.22-.08-.34-.11l-4.99-1.12s-.06,0-.1-.01c-.07-.01-.13-.02-.19-.03-.32-.02-.62.04-.9.17-.09.04-.18.09-.26.15-.16.11-.31.25-.42.41-.06.08-.11.17-.15.26-.04.09-.08.19-.1.28l-5.7,22.38-1.13,4.41.53-.06,8.63-.95,6.09-23.88c.03-.11.04-.22.05-.33,0-.11,0-.22-.02-.32Z"/>
        <polygon class="cls-1" points="109.5 31.31 108.77 31.39 108.77 31.39 109.5 31.31"/>
        <path class="cls-1" d="m110.34,25.22l5.7-22.38c.03-.1.06-.19.1-.28-.04.09-.08.19-.1.28l-5.7,22.38h0Z"/>
        <rect class="cls-1" x="108.77" y="31.39" width="0" height="0" transform="translate(51.37 128.97) rotate(-75.63)"/>
        <rect class="cls-1" x="107.5" y="27.43" width="4.55" height="0" transform="translate(56.08 127.03) rotate(-75.7)"/>
        <path class="cls-1" d="m132.07,20.61c0-.08-.02-.16-.04-.24-.05-.21-.15-.4-.28-.57-.19-.26-.46-.47-.79-.58l-4.65-1.65c-.09-.03-.17-.05-.26-.07-.09-.02-.18-.03-.26-.03-.1,0-.2,0-.29.02-.07.01-.14.03-.21.05-.14.04-.27.1-.4.17-.06.04-.12.08-.18.12-.25.19-.45.44-.56.74l-3.65,9.83,9.25-1.02,2.24-6.04c.03-.08.05-.16.07-.24.03-.16.04-.33.02-.49Z"/>
        <path class="cls-1" d="m130.96,19.22l-4.65-1.65c-.09-.03-.17-.05-.26-.07.09.02.18.04.26.07l4.65,1.65Z"/>
        <polygon class="cls-1" points="98.01 41.84 98.36 41.8 98.36 41.8 98.01 41.84"/>
        <rect class="cls-1" x="95.37" y="39.27" width="5.28" height="0"/>
        <rect class="cls-1" x="98.36" y="36.65" width="0" height="0"/>
        <rect class="cls-1" x="98.36" y="36.65" width="0" height="5.15"/>
        <g>
          <path class="cls-1" d="m130.31,29.05c-.19-.06-.4-.08-.61-.06l-.59.07-9.26,1.06-1.9.22-8.43.97h-.01s-.73.08-.73.08h0l-1.58.18-7.27.83-.98.11h0l-1.55.18-6.2.71c-.11.01-.23.01-.34,0l-.3-.03h-.05s-1.23-.14-1.23-.14h0l-1.56-.17-5.8-.65-1.42-.16-.41-.05-1.54-.17-4.33-.48-1.59-.18-.41-.05-1.42-.16-7.02-.78-.37-.04-1.21-.14-.37-.04-10.06-1.12-.51-.06c-.22-.02-.43,0-.63.07-.55.18-.96.68-.96,1.28v6.52c0,.68.54,1.26,1.26,1.34l4.3.48,8.27.92,1.59.18.58.06,1.58.18,3.65.41,1.42.16,1.99.22,1.59.18,3.94.44.75.08.79.09.63.07,5.71.64,1.56.17h0l1.02.11.55.06c.11.01.23.01.34,0l.62-.07,4.3-.49,1.55-.18.7-5.11h0s0,0,0,0v5.03l1.56-.18,4.84-.56,1.58-.18.7-2.76h0s0,0,0,0l-.37,2.72,1.55-.18,6.44-.74,1.59-.18.83-.1,8.43-.97,4.51-.52c.71-.08,1.25-.66,1.25-1.34v-6.51c0-.61-.42-1.11-.98-1.28Z"/>
          <polygon class="cls-1" points="98.01 41.84 98.36 41.8 98.36 36.65 97.66 41.88 98.01 41.84"/>
          <polygon class="cls-1" points="106.34 40.86 106.68 40.82 107.05 38.03 106.34 40.86"/>
        </g>
        <polygon class="cls-1" points="107.05 38.03 106.68 40.82 107.05 38.03 107.05 38.03"/>
        <rect class="cls-1" x="106.7" y="37.99" width="0" height="2.92" transform="translate(54.32 140.43) rotate(-82.87)"/>
        <rect class="cls-1" x="107.05" y="38.03" width="0" height="0" transform="translate(56.03 139.54) rotate(-82.87)"/>
      </g>
      <g>
        <path class="cls-1" d="m40.72,102.67c11.81,0,23.63-.11,35.44-.1,4.45,0,5.33,2.12,4.33,6.51-.93,4.06-3.86,6.78-8.02,7.38-1,.14-2.01.21-3.02.2-19.74-.1-39.48-.2-59.22-.34-5.34-.04-8.5-2.83-9.4-8.12-.62-3.62.1-5.52,3.75-5.53,12.05-.03,24.09-.01,36.14-.01,0-.03,0,.03,0,0Z"/>
        <path class="cls-1" d="m40.73,100.26c-11.08,0-22.15.03-33.22-.03-1.51,0-3.12-.15-4.49-.71-2.44-1-3.14-5.23-1.45-7.19.59-.68,2.15-1.25,2.87-.95,5.25,2.22,9.94,1.32,14.24-2.18,1.27-1.04,2.22-.81,3.46.09,6.38,4.61,10.65,4.59,17.01-.06,1.37-1,2.34-.91,3.69.05,6.28,4.49,10.63,4.52,16.91.15,1.28-.89,2.25-.94,3.52-.04,4.35,3.09,8.94,4.33,14.1,1.93.7-.32,2.35.14,2.74.76.61.97.97,3.97.63,5.02-.67,2.11-2.47,3.03-4.71,3.03-5.08,0-10.15.02-15.23.03-3.38,0-6.77,0-10.15,0-3.31,0-6.61.09-9.92.09,0,.03,0-.03,0,0Z"/>
        <path class="cls-1" d="m40.82,79.19c12.43,0,24.86.05,37.3.05,2.74,0,2.75-.05,2.75,2.94,0,.94-.29,2.26-.94,3.07-3.73,4.67-9.75,5.09-14.97,1.19q-3.42-2.55-6.9.09c-4.89,3.7-10,3.44-14.56-.75q-2.5-2.29-5.14-.16c-6.04,4.88-10.95,4.77-16.52-.56-1.38-1.32-2.36-1.21-3.79-.11-1.76,1.36-3.63,2.77-5.68,3.52-3.9,1.41-7.59.45-10.49-2.5-.84-.86-1.24-2.44-1.24-3.68,0-3.31,0-3.03,3.11-3.03,6.22,0,12.44-.05,18.66-.05,6.14,0,12.28,0,18.42,0v-.02Z"/>
        <path class="cls-1" d="m48.66,45.88c-5.31-.53-10.86-.55-15.76,0C15.56,47.81,0,53.62,0,68.84h0c0,4.93,4.74,7.73,10.59,7.73h59.93c5.85,0,10.59-2.8,10.59-7.73h0c0-15.22-13.1-21.03-32.43-22.97Zm-35.83,14.95c-.31.79-1.06,1.28-1.68,1.11-.62-.17-.87-.95-.57-1.74s1.06-1.28,1.68-1.11c.62.17.87.95.57,1.74Zm12.37-6.63c-.41.8-1.24,1.26-1.87,1.03-.63-.23-.81-1.06-.41-1.86.41-.8,1.24-1.26,1.87-1.03.63.23.81,1.06.41,1.86Zm8.18,10.27c-.32.98-1.21,1.63-1.98,1.45-.77-.18-1.14-1.12-.82-2.1.32-.98,1.21-1.63,1.98-1.45.77.18,1.14,1.12.82,2.1Zm7.79-10.83c-.74,0-1.35-.76-1.35-1.7s.6-1.7,1.35-1.7,1.35.76,1.35,1.7-.6,1.7-1.35,1.7Zm10.27,12.57c-.76.13-1.56-.55-1.79-1.51-.23-.96.21-1.85.97-1.98.76-.13,1.56.55,1.79,1.51s-.21,1.85-.97,1.98Zm7.14-10.13c-.73.12-1.5-.53-1.71-1.45-.22-.92.2-1.77.93-1.89.73-.12,1.5.53,1.71,1.45.22.92-.2,1.77-.93,1.89Zm12.08,6.37c-.64.11-1.32-.46-1.51-1.28-.19-.81.17-1.56.81-1.67s1.32.46,1.51,1.28-.17,1.56-.81,1.67Z"/>
      </g>
    </g>
  </g>
</svg>