<?xml version="1.0" encoding="UTF-8"?>
<svg id="Layer_2" data-name="Layer 2" xmlns="http://www.w3.org/2000/svg" viewBox="0 0 79.59 157.97">
  <defs>
    <style>
      .cls-1 {
        fill: #6c584c;
      }
    </style>
  </defs>
  <g id="Layer_1-2" data-name="Layer 1">
    <g>
      <g>
        <path class="cls-1" d="m75.86,56.1c-.68-5.61-6.26-9.29-11.71-7.72-2.66.76-4.6,2.4-5.85,4.87-.54,1.06-1.54,1.45-2.41.88-.33-.22-.6-.6-.79-.96-2.73-5.22-9.2-6.75-13.95-3.27-1.15.84-2.01.64-2.81-.58-2.25-3.49-5.46-5.1-9.57-4.43-3.93.65-6.43,3.07-7.55,6.89-.45,1.54-1.61,1.95-2.9,1.01-5.19-3.78-12.48-1.41-14.43,4.69-.12.37-.19.75-.29,1.16h72.52c-.1-.9-.17-1.72-.27-2.54Zm-60.97.54c-.21.32-.63.41-.95.2l-2.15-1.41c-.32-.21-.41-.63-.2-.95.21-.32.63-.41.95-.2l2.15,1.41c.32.21.4.63.2.95Zm15.26-6.54l-2.3.81c-.34.12-.71-.06-.83-.4-.12-.34.06-.71.4-.83l2.3-.81c.34-.12.71.06.83.4.12.34-.06.71-.4.83Zm9.36,4.99l-.88,2.11c-.13.31-.49.46-.8.33s-.46-.49-.33-.8l.88-2.11c.13-.31.49-.46.8-.33s.46.49.33.8Zm8.89-2.38c-.31.13-.67-.02-.8-.33l-.87-2.11c-.13-.31.02-.67.33-.8s.67.02.8.33l.87,2.11c.13.31-.02.67-.33.8Zm19.32,2.73l-2.11.87c-.31.13-.67-.02-.8-.33s.02-.67.33-.8l2.11-.87c.31-.13.67.02.8.33s-.02.67-.33.8Z"/>
        <path class="cls-1" d="m76.99,61.98c-24.69,0-49.38,0-74.07,0-.23,0-.47-.01-.7,0-1.03.06-1.87.75-2.12,1.73-.42,1.64.67,2.99,2.43,2.99,12.43,0,24.86,0,37.29,0,12.32,0,24.65,0,36.97,0,.26,0,.51,0,.77-.01,1.01-.09,1.87-.92,2.01-1.92.22-1.66-.82-2.79-2.57-2.79Z"/>
        <path class="cls-1" d="m7.85,70.07h63.59c0-.07.01-.13.02-.2v-.1s-63.63,0-63.63,0c0,.07.01.14.02.21h0s0,.06,0,.09Z"/>
        <path class="cls-1" d="m8.2,73.92l3.99,45.42c.19,2.15.38,4.3.57,6.46.18,2.02.35,4.05.53,6.07.18,2.12.37,4.24.55,6.36.15,1.71.3,3.42.46,5.14.26,2.9.52,5.81.77,8.71.12,1.38.72,1.66,1.6,1.66h45.94c1.09,0,1.53-.42,1.63-1.56.26-2.87.51-5.75.76-8.62l.44-5.1c.32-3.65.64-7.29.96-10.94l.5-5.65c.2-2.28.41-4.56.61-6.84.19-2.22.39-4.45.58-6.67.2-2.35.41-4.7.61-7.05.23-2.66.47-5.33.71-7.99l.51-5.79c.46-5.17.91-10.34,1.37-15.51.06-.64.11-1.28.16-1.93H7.85c.11,1.28.23,2.57.34,3.85Zm53.49,22.71c.98,0,1.77.79,1.77,1.77s-.79,1.77-1.77,1.77-1.77-.79-1.77-1.77.79-1.77,1.77-1.77Zm-3.55,28.17c.98,0,1.77.79,1.77,1.77s-.79,1.77-1.77,1.77-1.77-.79-1.77-1.77.79-1.77,1.77-1.77Zm-17.17-49.58c.98,0,1.77.79,1.77,1.77s-.79,1.77-1.77,1.77-1.77-.79-1.77-1.77.79-1.77,1.77-1.77Zm-6.27,68.89c.98,0,1.77.79,1.77,1.77s-.79,1.77-1.77,1.77-1.77-.79-1.77-1.77.79-1.77,1.77-1.77Zm-4.11-31.26c.98,0,1.77.79,1.77,1.77s-.79,1.77-1.77,1.77-1.77-.79-1.77-1.77.79-1.77,1.77-1.77Zm-12.55-24.47c.98,0,1.77.79,1.77,1.77s-.79,1.77-1.77,1.77-1.77-.79-1.77-1.77.79-1.77,1.77-1.77Z"/>
        <path class="cls-1" d="m72.87,72.14c-.45,5.17-.91,10.34-1.37,15.51l-.51,5.79c-.24,2.66-.47,5.33-.71,7.99-.21,2.35-.41,4.7-.61,7.05-.19,2.22-.39,4.45-.58,6.67-.2,2.28-.4,4.56-.61,6.84l-.5,5.64c-.32,3.65-.64,7.29-.96,10.94l-.44,5.1c-.25,2.88-.5,5.75-.76,8.63-.18,1.97-1.3,3.01-3.22,3.01H16.66c-1.88,0-3.02-1.11-3.19-3.12-.25-2.9-.51-5.8-.77-8.7-.15-1.71-.31-3.43-.46-5.14-.19-2.12-.37-4.24-.55-6.36-.18-2.02-.35-4.05-.53-6.07-.19-2.15-.38-4.3-.57-6.45l-3.99-45.42c-.12-1.31-.23-2.63-.35-3.94,0-.02,0-.03,0-.05h-2.59c.03.4.04.75.07,1.11.23,2.48.47,4.95.71,7.43.36,3.83.72,7.66,1.08,11.5.4,4.25.81,8.51,1.21,12.76.4,4.28.8,8.55,1.21,12.83.4,4.28.82,8.55,1.22,12.83.4,4.26.79,8.51,1.2,12.77.45,4.74.92,9.48,1.35,14.23.15,1.63,1.01,2.46,2.65,2.46,16.94,0,33.89,0,50.83,0,1.65,0,2.53-.74,2.69-2.35.41-4.21.8-8.43,1.19-12.64.4-4.23.8-8.47,1.2-12.7.41-4.28.82-8.55,1.22-12.83.44-4.7.88-9.4,1.32-14.1.45-4.72.9-9.44,1.35-14.16.51-5.31,1.01-10.63,1.51-15.94.1-1.05.19-2.1.28-3.19h-2.92c-.06.7-.11,1.38-.17,2.07Z"/>
      </g>
      <path class="cls-1" d="m64.01,34.77c-6.18-4.97-13.29-7.33-21.25-7.33,0-.28,0-.51,0-.74,0-3.62,0-6.7-.01-10.32l13.08-11.36c.36-.31.72-1.06.41-1.42l-2.92-3.31c-.31-.36-.86-.4-1.22-.09l-14.21,12.34c-.06.05-.1.11-.15.17-.55.53-.88,1.26-.88,2.1,0,3.96,0,7.92,0,11.88v.77c-4.8-.04-9.32.83-13.63,2.7-4.3,1.87-8.02,4.54-11.17,8-3.15,3.46-5.45,7.41-6.95,12.03,4.4-2.95,8.83-3.34,13.52-1.16,2.12-4.26,5.42-6.94,10.17-7.52,4.76-.58,8.59,1.24,11.59,4.82,6.26-2.97,11.69-1.87,16.32,3.1,4.69-4.96,10.09-6.08,16.35-3.09-2.17-4.6-5.15-8.45-9.04-11.58Z"/>
    </g>
  </g>
</svg>