<?xml version="1.0" encoding="UTF-8"?>
<svg id="Layer_2" data-name="Layer 2" xmlns="http://www.w3.org/2000/svg" viewBox="0 0 147.34 166.98">
  <defs>
    <style>
      .cls-1 {
        fill: #6c584c;
      }
    </style>
  </defs>
  <g id="Layer_1-2" data-name="Layer 1">
    <g>
      <g>
        <path class="cls-1" d="m136.63,86.68c-3.87-.43-7.62.15-11.28,1.31-2.44.77-4.81,1.74-7.21,2.62v-9.3c-1.07,0-2.05,0-3.03,0-21.66-.01-43.33-.03-64.99-.04-15.97,0-31.94-.01-47.91-.03-1.25,0-2.26-.06-2.21,1.78.33,11.58,2.04,22.9,6.03,33.81,4.83,13.22,11.77,25.04,22.91,34.01.8.64,1.97,1.14,2.98,1.14,18.2.06,36.4.06,54.6,0,.95,0,2.08-.46,2.83-1.07,5.3-4.26,9.64-9.41,13.53-14.96.55-.79,1.5-1.46,2.41-1.81,3.17-1.23,6.45-2.18,9.6-3.45,8.58-3.46,16.83-7.52,23.64-13.98,4.91-4.65,7.98-10.3,8.72-17.03.78-7-3.63-12.21-10.62-12.99Zm-85.2,41.51c-.29,1.52-1.03,2.29-2.17,2.29-.33,0-.69-.06-1.08-.19-1.57-.51-3.23-1.1-4.51-2.09-1.33-1.02-2.48-2.3-3.43-3.73-1.1-1.65-1.94-3.51-2.48-5.45-.92-3.3-.97-6.82.05-9.92.55-1.66,2.22-4.31,3.35-5.77q.08.49-.12,1.3c-1.3,6.28,1.82,10.3,6.58,13.62,3.44,2.4,4.61,5.81,3.82,9.94Zm5.07-3.9c-.58,1.65-2.13,4.01-3.12,5.4q.03-.46.08-.97c.02-.22.04-.14.1-.82.38-4.42-1.31-8.66-5.23-11.6-1.28-.96-2.61-1.95-3.63-3.16-1.87-2.2-2.43-4.84-1.83-7.68.4-1.88.83-2.67,2.01-2.67.45,0,1.02.12,1.74.34,1.63.5,3.28,1.34,4.6,2.41,2.79,2.26,4.77,5.93,5.61,9.79.12.54.21,1.08.28,1.62.34,2.55.17,5.11-.61,7.33Zm11.08-16.3c5.05,0,10.15,2,12.47,5.82-1.73-.64-3.35-.94-4.88-.94-3.53,0-6.54,1.62-9.25,4.47-.11.11-.22.22-.32.32-1.38,1.39-2.96,2.49-4.83,2.88-.4.08-.81.15-1.25.16-.55-3.19-1.1-6.32-1.67-9.58,2.52-2.11,6.11-3.14,9.72-3.14Zm10.85,14.43c-3.49,3.58-7.66,5.08-12.2,5.08-1.7,0-3.44-.21-5.23-.6-.94-.2-1.83-.62-2.77-.95.15-2.26,1.03-3.07,3.02-3.74,1.91-.43,3.72-1.49,5.47-3.22.44-.35.88-.7,1.31-1.06,1.94-1.61,3.92-3.13,6.38-3.13.22,0,.45.01.69.04,1.96.22,3.82,1.32,5.72,2.02-.77,1.88-1.08,4.21-2.4,5.56Zm61.05-22.45c-.68,4.25-2.79,7.8-5.84,10.8-5.07,4.99-11.26,8.19-17.63,11.12-2.05.94-4.16,1.76-6.75,2.84.5-1.25.77-2,1.08-2.73,2.04-4.91,3.72-9.66,4.72-13.46.74-2.81,1.82-6.15,2.64-9.25.11-.42,2.04-1.44,2.44-1.64,4.56-2.23,9.22-3.46,14.42-3.42,4.12.03,5.57,1.68,4.92,5.74Z"/>
        <path class="cls-1" d="m45.03,63.08c.17.19.46.28.69.41.09-.16.15-.21.14-.26-.02-.23-.03-.46-.09-.68-1.59-5.22-1.03-10.32.89-15.34,2.31-6,6.04-10.75,12.18-13.14,3.6-1.41,7.33-2.48,10.97-3.78,7.07-2.51,9.54-6.27,9.18-13.72-.26-5.29-1.91-10.24-3.75-15.13-.19-.51-.55-.96-.83-1.44l-.4.14c-.03.23-.1.46-.08.68.37,5.35-1,10.35-3.13,15.19-2.32,5.27-6.02,8.86-11.86,9.96-2.88.54-5.74,1.2-8.6,1.85-8.99,2.03-14.5,9.7-13.49,18.83.72,6.47,4.05,11.65,8.18,16.43Z"/>
        <path class="cls-1" d="m69.49,47.93c-1.9.36-3.8.72-5.69,1.16-3.03.7-5.76,1.98-7.87,4.36-3.09,3.48-3.88,7.53-2.9,11.98,1,4.52,3.45,8.21,6.41,11.6.14-.08.28-.16.42-.24-.04-.22-.08-.44-.13-.65-2.1-8.67,1.6-20.25,13.71-23.29,2.32-.58,4.59-1.43,6.82-2.33,3.4-1.37,5.07-4.08,5.28-7.65.3-5.23-1.21-10.08-3.34-14.77-.05-.12-.25-.17-.5-.34-.1.36-.26.63-.23.88.41,3.61-.62,6.97-1.83,10.28-1.76,4.8-4.96,8.02-10.13,9.01Z"/>
      </g>
      <path class="cls-1" d="m103.77,155.64H1.7c.79.94,1.24,1.58,1.8,2.11,6.28,6,13.85,9.07,22.45,9.12,11.62.07,23.24.11,34.85.1,11.62,0,23.24-.03,34.85-.1,8.6-.05,16.17-3.12,22.45-9.12.56-.53,1-1.17,1.8-2.11h-16.13Z"/>
    </g>
  </g>
</svg>