<?xml version="1.0" encoding="UTF-8"?>
<svg id="Layer_2" data-name="Layer 2" xmlns="http://www.w3.org/2000/svg" viewBox="0 0 95.43 127.04">
  <defs>
    <style>
      .cls-1 {
        fill: #6c584c;
      }
    </style>
  </defs>
  <g id="Layer_1-2" data-name="Layer 1">
    <g>
      <polygon class="cls-1" points="6.06 122.61 6.06 122.61 6.05 122.61 6.06 122.61"/>
      <path class="cls-1" d="m37.64,118.74c0-.34-.18-.65-.53-.96-.33-.29-.78-.6-1.34-.47-.24.06-.47.19-.7.4-1.93,1.74-3.74,3.24-5.98,4-.2.07-.4.14-.61.2-1.36.36-2.71.74-3.71,1.03l-.89.25c-2.89.14-5.21-.13-7.73-.89-2.76-.83-5.27-2.46-7.87-5.13-.65-.66-1.25-1.51-1.9-2.68-.28-.51-.51-1.05-.75-1.62-.27-.64-.62-1.28-.92-1.93-.41-.88-.61-1.82-.86-3.11-.11-.59-.23-1.2-.31-1.82-.07-.52-.07-1.13,0-1.77.03-.31.07-.61.08-.92.1-2.4.75-4.66,1.92-6.73.37-.64.76-1.29,1.15-1.91.27-.43.53-.86.79-1.3.58-.98-.15-1.53-.51-1.8-.07-.06-.15-.11-.21-.17-.37-.33-.7-.34-.92-.29-.38.09-.61.4-.78.63-2.55,3.45-4.17,7.38-4.81,11.69-.38,2.59-.32,5.27.2,8.19.5,2.79,1.48,5.25,2.92,7.33,3.96,5.68,9.73,8.39,17.16,8.05,1.24-.06,2.6-.26,4.14-.62,1.09-.26,2.15-.56,3.04-.83,1.98-.59,3.88-1.5,5.69-2.72,1.3-.87,2.55-1.89,3.74-3.08.22-.22.52-.57.5-1.02Z"/>
      <g>
        <path class="cls-1" d="m18.67,105.49s-.08-.06-.13-.09c-.18-.13-.39-.27-.58-.3-.6-.09-1.23-.13-1.83-.16-.33-.02-.66-.04-.99-.07l-.37-.03c-1.93-.16-3.87-.33-5.8-.51-1-.1-1.83-.21-2.59-.35-.09-.02-.19-.03-.3-.03-.16,0-.32.03-.43.13-.13.11-.19.31-.18.58.09,2.57.28,5.07,1.54,7.28.34.59.52.76.9.56,1.59-.88,3.19-1.81,4.73-2.71l.7-.41c1.35-.78,2.74-1.59,4.08-2.42l.15-.09c.51-.31.99-.59,1.09-1.38Z"/>
        <path class="cls-1" d="m19.83,108.18c.08-.21.04-.61-.1-.79-.19-.26-.48-.27-.86-.04-.57.34-1.15.66-1.72.99-.63.35-1.28.72-1.91,1.1-1.32.8-2.63,1.62-3.94,2.44-.75.47-1.51.94-2.26,1.41-.43.26-.65.51-.68.75-.03.23.13.52.46.85,1.43,1.43,2.72,2.64,3.96,3.69.35.29.78.49,1.29.73.2.09.4.18.61.29.07-.08.15-.15.22-.23.22-.23.42-.42.52-.64.34-.77.66-1.56.97-2.33.21-.53.43-1.07.65-1.59.34-.81.69-1.62,1.04-2.44.59-1.36,1.19-2.78,1.76-4.17Z"/>
        <path class="cls-1" d="m24.72,118.2c-.07-.25-.13-.49-.19-.74l-.1-.4c-.4-1.59-.8-3.19-1.19-4.79-.1-.4-.19-.81-.29-1.21-.2-.86-.41-1.75-.66-2.6-.06-.19-.38-.47-.58-.5-.12-.02-.46.19-.56.39-.67,1.38-1.28,2.78-1.78,3.97-.41.96-.8,1.93-1.2,2.9-.49,1.2-.98,2.4-1.49,3.59-.21.48-.26.79-.17,1,.09.2.34.36.79.51,1.74.59,3.61.79,6.26.67.08-.02.2-.02.38-.02.52-.01.85-.12,1.02-.34.17-.22.21-.57.1-1.08-.09-.45-.21-.91-.33-1.35Z"/>
        <path class="cls-1" d="m6.9,102.98c.34.02.67.03,1.01.04.76.03,1.56.07,2.33.12.59.04,1.18.11,1.76.17.41.05.83.09,1.24.13,1.14.1,2.28.2,3.51.31l1.59.14s.07-.04.11-.06c.17-.09.41-.22.5-.39,0-.09-.23-.45-.33-.6l-.04-.06c-.15-.23-.38-.44-.58-.62l-.84-.73c-2.27-1.98-4.62-4.03-6.95-6.02-.57-.49-.88-.67-1.11-.64-.27.04-.57.4-.94.94-1.05,1.54-1.81,3.37-2.39,5.76-.12.51-.1.88.08,1.11s.53.37,1.05.39Z"/>
        <path class="cls-1" d="m33.15,115c-1.02-.9-2.05-1.78-3.07-2.67l-1.43-1.24c-.35-.3-.7-.61-1.05-.92-.94-.82-1.9-1.67-2.89-2.46-.19-.15-.63-.18-.96-.11h-.05c-.06.08-.19.41-.17.53.21,1,.46,2.01.7,2.99.15.6.29,1.19.43,1.79.2.86.35,1.74.53,2.61l.27,1.4h0l.34,1.26c.09.35.19.69.27,1.04.07.29.16.51.28.7.18.29.41.41.74.38.06,0,.13-.01.2-.03.14-.03.29-.09.46-.16,2.36-1.05,4.03-2.07,5.4-3.32.41-.37.68-.66.69-.88.01-.2-.19-.45-.71-.91Z"/>
      </g>
      <g>
        <path class="cls-1" d="m31.4,126.88c11.35.03,24.21.01,35.56-.07,6.18-.05,11.61-2.35,16.06-6.74.31-.31.52-.73.89-1.26h-43.35c-1.04,1.29-4.6,5.49-9.15,8.08Z"/>
        <path class="cls-1" d="m94.11,62.22c-1.49-5.73-5.57-8.71-11.24-9.58-2.31-.35-4.67-.31-7.51-.47.1-2.05.21-4.74.27-6.43.11-3.19.43-3.64-3.12-3.61-3.09.03-5.73.05-8.91.07v22.46l6.29,3.33v12.36h-15.02v-12.36l6.43-3.41v-22.37c-15.1.08-30.5.05-45.09-.05-3.42-.02-4.17-.41-4.09,3.02.2,9.04-.39,19.65.33,28.64.6,7.51,1.48,15.02,2.52,22.49l.15-.02,23.2,19.88c6.78,0,13.56,0,20.34-.02,9.34-.01,10.19-.66,12.32-10.48.17-.77.62-2.84.79-3.6.6-2.78.67-2.54,3.1-3.05,7.14-1.49,12.87-5.29,16.5-11.66,4.51-7.92,4.99-16.44,2.73-25.14Zm-19.15,28.51c-.48.15-1,.14-1.63.23.76-10.3,1.49-20.18,2.21-30.05,7.67-2.04,11.14.42,11.65,8.25.75,11.55-3.36,18.82-12.23,21.58Z"/>
        <path class="cls-1" d="m38.55,37.75c-7.52-8.76-.81-12.71,4.15-17.46,1.55-1.48,2.85-3.49,3.59-5.5,2.18-5.87-2.13-13.3-8.09-14.8,6.5,6.93,2.46,13.49-2.82,17.98-1.54,1.31-2.83,3.14-3.71,4.98-2.93,6.06-.16,12.73,6.88,14.79Z"/>
        <path class="cls-1" d="m51.9,37.75c-.19-3.68-.04-6.34,1.85-9.58,1.24-2.12,5.84-5.73,6.62-8,1.51-4.37-1.78-10.16-5.57-12.25,2.78,6.97,1.1,9.63-2.64,13.82-1.3,1.46-2.63,2.98-3.52,4.69-2.07,3.96.07,9.03,3.26,11.33Z"/>
      </g>
    </g>
  </g>
</svg>