<?xml version="1.0" encoding="UTF-8"?>
<svg id="Layer_2" data-name="Layer 2" xmlns="http://www.w3.org/2000/svg" viewBox="0 0 100.05 169.96">
  <defs>
    <style>
      .cls-1 {
        fill: #6c584c;
      }
    </style>
  </defs>
  <g id="Layer_1-2" data-name="Layer 1">
    <g>
      <g>
        <path class="cls-1" d="m54.74,166.11c-4.41-4.37-7.16-9.59-7.84-15.78-.58-5.27.53-10.11,4.49-13.93,4.18-4.02,10.41-4.65,16.43-1.71,1.39.68,2.69,1.55,4.03,2.33.99-.91,1.86-1.87,2.9-2.6,1.02-.72,1.3-1.58,1.4-2.77.42-5.45.96-10.9,1.46-16.35,1.01-11.07,2.03-22.14,3.05-33.21.46-4.98.93-9.95,1.39-14.87.27-.08.38-.11.49-.14,3.18-.94,4.85-2.91,4.9-5.77.05-2.77-1.51-4.66-4.59-5.83-.53-.2-1.02-1.02-1.18-1.64-2.91-10.85-9.21-19.06-19.04-24.51-4.69-2.6-9.77-3.97-15.17-4.54,0-2.01-.12-3.93.04-5.82.14-1.68,1.19-2.88,2.76-3.53.75-.31,1.54-.52,2.32-.78,7.58-2.46,15.14-4.95,22.73-7.36,1.59-.5,2.07-1.26,1.39-2.81-.37-.85-.61-1.76-.9-2.64-.69-2.08-.82-2.16-2.82-1.51-7.85,2.55-15.71,5.09-23.55,7.66-6.53,2.15-9.32,6.02-9.32,12.83,0,1.32,0,2.63,0,3.89-.35.08-.46.11-.58.12-17.62,2.51-28.96,12.21-33.79,29.42-.15.54-.92,1.09-1.52,1.3C1.7,56.48.03,58.66,0,61.25c-.02,2.5,1.57,4.7,4.01,5.56.47.17.96.32,1.44.48.48,5.31.95,10.53,1.42,15.74,1.09,12.11,2.18,24.23,3.27,36.34,1.11,12.29,2.3,24.57,3.33,36.87.56,6.62,4.97,10.94,11.64,10.96,9.61.03,19.22,0,28.83,0,.45,0,.91-.05,1.47-.08-.06-.28-.06-.34-.09-.38-.19-.22-.39-.43-.59-.64Zm-.83-60.09c-2.76-1.7-5.48-3.47-8.19-5.26-1.47-.97-2.21-2.39-2.43-4.25.37-.94.61-1.97,1.13-2.82,1.59-2.61,3.26-5.17,4.94-7.72,1.52-2.31,3.94-3.08,6.32-2.04.03-.02.05-.04.08-.06,0,.04.02.07.03.1.23.11.46.22.69.36,3.08,1.9,5.62,3.55,8.06,5.19,2.33,1.57,2.95,4.44,1.47,6.84-1.7,2.76-3.46,5.49-5.27,8.18-1.58,2.34-4.41,2.95-6.83,1.47Zm18.2,14.22l-1.29,7.43c-.29,1.66-1.86,2.77-3.52,2.48l-7.43-1.29c-1.66-.29-2.77-1.86-2.48-3.52l1.29-7.43c.29-1.66,1.86-2.77,3.52-2.48l7.43,1.29c1.66.29,2.77,1.86,2.48,3.52ZM47.51,27.16c15.83.93,29.45,13.67,32.01,28.05h-32.01v-28.05Zm-7.51.03v27.99H7.98c2.4-14.57,16.69-27.3,32.02-27.99ZM6.7,65c-2.82,0-4.47-1.42-4.46-3.77,0-1.89,1.24-3.34,3.12-3.61.57-.08,1.16-.07,1.74-.07,24.52,0,49.05,0,73.57,0,.8,0,1.65.07,2.39.35,1.56.59,2.38,2.27,2.13,4-.23,1.54-1.51,2.81-3.17,3.06-.57.09-1.16.05-1.74.05-12.23,0-24.47,0-36.7,0-12.29,0-24.58,0-36.87,0Zm9.31,25.45l1.76-10.16c.39-2.27,2.55-3.79,4.82-3.39l10.16,1.76c2.27.39,3.79,2.55,3.39,4.82l-1.76,10.16c-.39,2.27-2.55,3.79-4.82,3.39l-10.16-1.76c-2.27-.39-3.79-2.55-3.39-4.82Zm25.18,66.44c0,1.68-1.36,3.04-3.04,3.04h-7.54c-1.68,0-3.04-1.36-3.04-3.04v-7.54c0-1.68,1.36-3.04,3.04-3.04h7.54c1.68,0,3.04,1.36,3.04,3.04v7.54Zm2.25-21.67c-3.79,1.12-7.59,2.19-11.4,3.19-3.67.96-6.74-.84-7.8-4.5-1.07-3.68-2.12-7.36-3.11-11.06-.98-3.66.79-6.79,4.42-7.85,3.68-1.07,7.36-2.13,11.07-3.11,3.73-.99,6.88.84,7.95,4.55,1.03,3.57,2.02,7.15,3,10.73.18.67.27,1.36.33,1.7.02,3.14-1.7,5.53-4.46,6.35Z"/>
        <path class="cls-1" d="m91.46,131.58c-2.97-.7-5.91-.34-8.76.69-4.28,1.54-7.71,4.27-10.34,7.6-2.59-1.42-4.86-3.03-7.38-3.97-7.38-2.73-14.3,1.24-15.75,8.81-1.9,9.89,5.15,21.61,14.78,24.57,5.33,1.64,9.77.26,13.22-4.05.31-.38.92-.76,1.38-.74,10.1.39,20.71-9.55,21.41-20.38.4-6.21-2.93-11.21-8.55-12.53Zm-20.31,35.57c-1.99.21-4.1.59-5.99.15-9.08-2.14-16-14.07-13.5-23.07.41-1.46,1.26-2.79,1.91-4.18.2.03.41.07.61.1,1.14,5.88,5.15,9.77,9.22,13.63,2.23,2.12,4.52,4.24,6.43,6.63,1.14,1.44,1.7,3.39,2.3,5.18.13.39-.58,1.52-.98,1.56Zm5.99-7.63c-.35,2.02-1.05,3.9-2.71,5.51-1.06-4.84-4.35-7.95-7.59-11.14-2.85-2.81-5.72-5.63-8.19-8.76-1.22-1.55-1.58-3.8-2.3-5.74-.34-.92.12-1.39.98-1.66,2.37-.75,4.7-.61,7.02.2,8.23,2.86,14.25,13.02,12.79,21.59Zm9.46-15.41c-1.8,3.24-3.44,6.57-5.18,9.85-.43.81-.97,1.57-1.64,2.65-.29-1.72-.7-3,.15-4.48l5.25-9.81c1.59-2.81,3.72-5.16,6.48-6.92,1.39-.89,2.44-.81,3.47.78-4.04,1.44-6.58,4.41-8.54,7.93Z"/>
        <path class="cls-1" d="m55.75,83.87s-.05.04-.08.06c.04.02.07.03.11.05,0-.04-.02-.07-.03-.1Z"/>
      </g>
      <rect class="cls-1" x="19.92" y="79.78" width=".92" height="12.07" rx=".46" ry=".46" transform="translate(14.51 -2.19) rotate(9.54)"/>
      <rect class="cls-1" x="51.26" y="94.84" width=".98" height="12.2" rx=".49" ry=".49" transform="translate(163.99 117.32) rotate(125.45)"/>
      <rect class="cls-1" x="35.48" y="124.64" width="1.49" height="16.65" rx=".75" ry=".75" transform="translate(152.56 59.08) rotate(72.82)"/>
      <rect class="cls-1" x="69.04" y="119.5" width=".8" height="8.76" rx=".4" ry=".4" transform="translate(21.16 -9.68) rotate(9.4)"/>
      <rect class="cls-1" x="38.46" y="149.38" width=".8" height="8.09" rx=".39" ry=".39"/>
    </g>
  </g>
</svg>