<?xml version="1.0" encoding="UTF-8"?>
<svg id="Layer_2" data-name="Layer 2" xmlns="http://www.w3.org/2000/svg" viewBox="0 0 106.56 153">
  <defs>
    <style>
      .cls-1 {
        fill: #6c584c;
      }
    </style>
  </defs>
  <g id="Layer_1-2" data-name="Layer 1">
    <g>
      <g>
        <path class="cls-1" d="m15.62,134.13c-4.68-2.75-9.88-3.68-15.62-4.06.6,1.67,1.1,3.13,1.66,4.56,1.1,2.83,2.6,5.45,4.58,7.81,3.62,4.32,8.29,6.56,14.02,6.73.91.03,1.83-.06,2.74-.09-.18-.42-.39-.62-.61-.79-4-3.1-8.01-6.18-12.01-9.29-.43-.33-.98-.71-.45-1.33.51-.59,1.01-.21,1.45.14,3.59,2.79,7.17,5.58,10.76,8.36.59.46,1.21.89,1.82,1.34.09-.06.17-.12.26-.17-.31-1.19-.59-2.39-.94-3.57-1.24-4.18-3.82-7.4-7.66-9.65Z"/>
        <path class="cls-1" d="m106.55,145.19c-.27-1.08-1.29-1.33-2.13-.61-3.98,3.42-8.7,5.07-13.96,5.31-4.07.18-7.88-.74-11.52-2.55-2.94-1.46-5.28-3.57-7.33-5.98-2.96-3.49-4.29-7.65-4.76-12.07-.28-2.61.24-5.18.99-7.67.91-3.02,2.55-5.7,4.67-8.08.5-.55.47-.93-.05-1.38-.24-.21-.44-.47-.73-.78-.38.34-.72.59-1,.9-2.7,3.02-4.58,6.45-5.73,10.28-1.65,5.47-1.8,10.91.12,16.35,2.01,5.7,5.88,9.79,11.61,12.12,6.7,2.73,13.49,2.46,20.27.12,3.37-1.16,6.4-2.85,9.08-5.13.24-.2.52-.61.46-.84Z"/>
        <path class="cls-1" d="m73.86,139.98c1.4,1.78,3.13,3.21,5.09,4.36.85.5,1.51.23,1.96-.64,2-3.85,4.01-7.7,6.03-11.54.29-.54.58-1.05,0-1.58-.56-.5-1.09-.27-1.66.02-2.02,1.02-4.07,2-6.1,3-1.97.97-3.96,1.93-5.9,2.95-.42.22-.71.68-1.09,1.05.28.5.44.85.66,1.16.31.42.68.8,1,1.22Z"/>
        <path class="cls-1" d="m70.81,134.66c.5,1.41.88,1.6,2.28.94,2.68-1.27,5.35-2.56,8.01-3.86,1.43-.7,2.86-1.42,4.24-2.21.29-.16.51-.71.47-1.04-.04-.28-.47-.68-.79-.73-2.57-.45-5.15-.84-7.73-1.24-1.98-.31-3.97-.58-5.94-.94-.88-.16-1.62.21-1.7,1.08-.06.61-.01,1.23-.01,1.85-.09,2.14.47,4.16,1.18,6.16Z"/>
        <path class="cls-1" d="m82.23,145.95c2.27,1,4.69,1.3,7.15,1.4.37-.04.73-.09,1.1-.12,1.72-.14,1.9-.42,1.55-2.1-.37-1.74-.67-3.49-.97-5.24-.42-2.42-.77-4.86-1.24-7.27-.07-.38-.57-.96-.86-.95-.4,0-.97.39-1.17.77-2.11,3.87-4.16,7.76-6.23,11.65-.47.88-.3,1.44.67,1.87Z"/>
        <path class="cls-1" d="m72.3,124.95c4.1.64,8.2,1.28,12.31,1.85.56.08,1.18-.25,1.77-.39-.21-.47-.31-1.04-.65-1.39-1.87-1.9-3.78-3.76-5.7-5.61-1.3-1.26-2.61-2.51-3.94-3.74-.25-.23-.61-.35-.99-.56-.34.21-.7.34-.92.58-2.04,2.19-3.17,4.86-4.03,7.63-.1.32.23.96.55,1.17.44.29,1.06.38,1.62.46Z"/>
        <path class="cls-1" d="m91.24,131.36c-.24.08-.49.58-.46.87.07.9.26,1.79.41,2.68.35,2.04.7,4.07,1.04,6.11.27,1.6.53,3.2.79,4.8.11.71.53,1.01,1.25.97.1,0,.2,0,.3-.02,2.92-.75,5.59-2,7.88-3.92.83-.69.74-1.05-.08-1.84-2.54-2.45-5.06-4.92-7.6-7.37-.76-.73-1.51-1.48-2.34-2.13-.27-.21-.84-.26-1.18-.14Z"/>
        <path class="cls-1" d="m66.02,146.01c-1.63-2.2-2.65-3.58-3.91-7.75-1.21-3.99-.97-8.45-.73-11.24.21-2.48,1.44-7.65,3.18-10.87,1.91-3.52,6.73-8.98,6.73-8.98l11.33,11.25c.37-3.92.75-7.83,1.12-11.75,1.01-10.83,2.02-21.65,3.03-32.48h-.04c.03-.28.05-.56.08-.84.42-4.45.86-8.89,1.28-13.29.25-.07.35-.1.45-.13,2.94-.84,4.49-2.6,4.53-5.16.04-2.48-1.4-4.16-4.24-5.21-.49-.18-.94-.91-1.09-1.46-2.69-9.7-8.52-17.03-17.62-21.91-4.34-2.32-9.04-3.54-14.04-4.05,0-1.79-.11-3.51.03-5.2.13-1.5,1.1-2.57,2.56-3.16.69-.28,1.43-.47,2.14-.69,7.01-2.2,14.01-4.42,21.03-6.57,1.47-.45,1.92-1.13,1.29-2.51-.35-.76-.56-1.57-.83-2.36-.64-1.86-.76-1.93-2.61-1.35-7.26,2.28-14.53,4.55-21.79,6.85-6.04,1.92-8.62,5.38-8.63,11.46,0,1.18,0,2.35,0,3.48-.32.07-.43.1-.53.11-16.3,2.24-26.79,10.91-31.26,26.29-.14.48-.85.97-1.41,1.16-2.3.79-3.85,2.74-3.88,5.05-.02,2.23,1.45,4.2,3.71,4.97.44.15.88.28,1.33.43.44,4.75.88,9.41,1.31,14.07,1.01,10.83,2.01,21.65,3.03,32.48,1.03,10.98,2.12,21.96,3.08,32.94.52,5.92,4.6,9.78,10.77,9.8,5.74.02,11.48.02,17.23.01,5.71,0,11.43,0,17.14-.01-1.38-1-2.91-2.25-3.77-3.41Zm15.41-64.23l-3.01,9.43c-.63,1.97-2.82,3.09-4.86,2.48l-9.77-2.91c-2.04-.61-3.2-2.72-2.57-4.69l3.01-9.43c.63-1.97,2.82-3.09,4.86-2.48l9.77,2.91c2.04.61,3.2,2.72,2.57,4.69Zm-25.29-57.51c14.64.83,27.25,12.21,29.62,25.07h-29.62v-25.07Zm-6.95.03v25.01h-29.62c2.22-13.02,15.44-24.39,29.62-25.01Zm-30.8,33.79c-2.61,0-4.13-1.27-4.13-3.37,0-1.69,1.15-2.99,2.88-3.23.53-.07,1.07-.07,1.61-.07,22.69,0,45.37,0,68.06,0,.74,0,1.53.06,2.21.31,1.44.53,2.2,2.03,1.97,3.57-.21,1.38-1.4,2.51-2.93,2.73-.53.08-1.07.04-1.61.04-11.32,0-22.63,0-33.95,0-11.37,0-22.74,0-34.11,0Zm9.67,12.25l9.78-2.86c2.05-.6,4.22.53,4.84,2.51l2.96,9.45c.62,1.98-.55,4.08-2.59,4.68l-9.78,2.86c-2.05.6-4.22-.53-4.84-2.51l-2.96-9.45c-.62-1.98.55-4.08,2.59-4.68Zm8.9,75.66c-.14.15-.29.3-.44.45-.45.44-.91.87-1.36,1.31,0,0,0,0,0,0-.06-.53-.18-1.06-.18-1.59-.01-6.6,0-13.19-.02-19.79,0-.57-.1-1.13-.15-1.7-.22-.38-.46-.59-.73-.59-.06,0-.12.01-.19.03-.16.05-.33.17-.51.37h0c-.06.53-.18,1.06-.19,1.59-.02,7.29-.02,14.58-.03,21.87-3.6-3.06-6.15-6.76-7.33-11.29-.8-3.07-.68-6.15.09-9.21,1.4-5.56,4.34-10.39,7.78-14.97.05-.07.19-.25.37-.43.46.59.95,1.35,1.39,1.96,3.25,4.52,5.89,9.3,6.88,14.81,1.18,6.6-.78,12.28-5.39,17.19Zm11.71-31.05l-7.23-6.98c-1.51-1.46-1.51-3.85,0-5.31l7.23-6.98c1.51-1.46,3.98-1.46,5.49,0l7.23,6.98c1.51,1.46,1.51,3.85,0,5.31l-7.23,6.98c-1.51,1.46-3.98,1.46-5.49,0Z"/>
      </g>
      <path class="cls-1" d="m32.39,84.45l-.07.02c-.23.07-.47-.06-.54-.28l-3.3-10.3c-.07-.22.06-.45.29-.52l.07-.02c.23-.07.47.06.54.28l3.3,10.3c.07.22-.06.45-.29.52Z"/>
      <rect class="cls-1" x="32.95" y="124.12" width="2.14" height="24.56" rx="1.05" ry="1.05"/>
      <path class="cls-1" d="m75.28,90.69l-.02.06c-.07.2-.3.31-.51.25l-9.85-3.19c-.21-.07-.32-.29-.25-.49l.02-.06c.07-.2.3-.31.51-.25l9.85,3.19c.21.07.32.29.25.49Z"/>
      <path class="cls-1" d="m58.79,105.59l.08.08c.16.16.16.41,0,.56l-7.04,6.8c-.16.16-.42.16-.58,0l-.08-.08c-.16-.16-.16-.41,0-.56l7.04-6.8c.16-.16.42-.16.58,0Z"/>
    </g>
  </g>
</svg>