<?xml version="1.0" encoding="UTF-8"?>
<svg id="Layer_2" data-name="Layer 2" xmlns="http://www.w3.org/2000/svg" viewBox="0 0 107.26 82.17">
  <defs>
    <style>
      .cls-1 {
        fill: #a98467;
      }
    </style>
  </defs>
  <g id="Layer_1-2" data-name="Layer 1">
    <g>
      <g>
        <path class="cls-1" d="m0,5.48c.28-1.24.7-2.39,1.55-3.38C3.22.14,6.22-.56,8.62.48c2.5,1.09,4.04,3.75,3.69,6.37-.37,2.79-2.43,5.01-5.01,5.39-2.97.44-5.53-.89-6.75-3.56C.3,8.11.18,7.47,0,6.86c0-.46,0-.92,0-1.38Z"/>
        <rect class="cls-1" x="23.63" y="0" width="83.63" height="12.32" rx="6.16" ry="6.16"/>
      </g>
      <g>
        <path class="cls-1" d="m0,75.33c.28-1.24.7-2.39,1.55-3.38,1.68-1.95,4.67-2.66,7.08-1.61,2.5,1.09,4.04,3.75,3.69,6.37-.37,2.79-2.43,5.01-5.01,5.39-2.97.44-5.53-.89-6.75-3.56C.3,77.96.18,77.32,0,76.71c0-.46,0-.92,0-1.38Z"/>
        <rect class="cls-1" x="23.63" y="69.85" width="83.63" height="12.32" rx="6.16" ry="6.16"/>
      </g>
      <g>
        <path class="cls-1" d="m0,40.4c.28-1.24.7-2.39,1.55-3.38,1.68-1.95,4.67-2.66,7.08-1.61,2.5,1.09,4.04,3.75,3.69,6.37-.37,2.79-2.43,5.01-5.01,5.39-2.97.44-5.53-.89-6.75-3.56C.3,43.03.18,42.39,0,41.78c0-.46,0-.92,0-1.38Z"/>
        <rect class="cls-1" x="23.63" y="34.93" width="83.63" height="12.32" rx="6.16" ry="6.16"/>
      </g>
    </g>
  </g>
</svg>